# xmcd
#
# Track frame offsets:
#	150
#	12947
#	32690
#	54122
#	63837
#	76541
#	92991
#	115808
#	141092
#	153673
#	168362
#	181107
#	200105
#	224550
#	240599
#	253761
#	277788
#	295887
#	327570
#	342198
#
# Disc length: 4752 seconds
#
# Revision: 1
# Processed by: cddbd v1.5.1PL0 Copyright (c) Steve Scherf et al.
# Submitted via: audiograbber 1.80
#
DISCID=1a128e14
DTITLE=James Brown - 83
DYEAR=1900
DGENRE=
TTITLE0=I Got You (I feel Good)
TTITLE1=Soul Power
TTITLE2=Living in America
TTITLE3=Papa's Got A Brand New Bag
TTITLE4=It's A Man's Man's Man's World
TTITLE5=Get On the Good Foot
TTITLE6=Super Bad
TTITLE7=I'm Real
TTITLE8=Please Please Please 
TTITLE9=The Boss
TTITLE10=Think
TTITLE11=Get Up Offa That Think
TTITLE12=Doing It To Death
TTITLE13=Night Train
TTITLE14=Cold Sweat
TTITLE15=Get Up, I Feel Like Being A Sex Machine
TTITLE16=It's Too Funky Im Here
TTITLE17=Funki Drummer, Pts.1&2
TTITLE18=Give It Up Or Turn It A Loose
TTITLE19=Try Me
EXTD=Yukko
EXTT0=
EXTT1=
EXTT2=
EXTT3=
EXTT4=
EXTT5=
EXTT6=
EXTT7=
EXTT8=
EXTT9=
EXTT10=
EXTT11=
EXTT12=
EXTT13=
EXTT14=
EXTT15=
EXTT16=
EXTT17=
EXTT18=
EXTT19=
PLAYORDER=
